<mxfile host="Electron" agent="Mozilla/5.0 (Windows NT 10.0; Win64; x64) AppleWebKit/537.36 (KHTML, like Gecko) draw.io/25.0.2 Chrome/128.0.6613.186 Electron/32.2.5 Safari/537.36" version="25.0.2">
  <diagram id="R2lEEEUBdFMjLlhIrx00" name="Page-1">
    <mxGraphModel dx="1560" dy="1084" grid="1" gridSize="10" guides="1" tooltips="1" connect="1" arrows="1" fold="1" page="1" pageScale="1" pageWidth="850" pageHeight="1100" math="0" shadow="0" extFonts="Permanent Marker^https://fonts.googleapis.com/css?family=Permanent+Marker">
      <root>
        <mxCell id="0" />
        <mxCell id="1" parent="0" />
        <mxCell id="OiaWIOZTLgUIKb1iqm9q-14" style="edgeStyle=orthogonalEdgeStyle;rounded=0;orthogonalLoop=1;jettySize=auto;html=1;exitX=1;exitY=0.5;exitDx=0;exitDy=0;entryX=0;entryY=0.5;entryDx=0;entryDy=0;endArrow=none;endFill=0;startArrow=ERoneToMany;startFill=0;endSize=16;startSize=20;" edge="1" parent="1" source="OiaWIOZTLgUIKb1iqm9q-1" target="OiaWIOZTLgUIKb1iqm9q-13">
          <mxGeometry relative="1" as="geometry" />
        </mxCell>
        <mxCell id="OiaWIOZTLgUIKb1iqm9q-1" value="&lt;font style=&quot;font-size: 24px;&quot;&gt;Ticker&lt;/font&gt;" style="whiteSpace=wrap;html=1;align=center;" vertex="1" parent="1">
          <mxGeometry x="200" y="120" width="240" height="120" as="geometry" />
        </mxCell>
        <mxCell id="OiaWIOZTLgUIKb1iqm9q-10" style="rounded=0;orthogonalLoop=1;jettySize=auto;html=1;exitX=1;exitY=1;exitDx=0;exitDy=0;entryX=0;entryY=0;entryDx=0;entryDy=0;endArrow=none;endFill=0;" edge="1" parent="1" source="OiaWIOZTLgUIKb1iqm9q-2" target="OiaWIOZTLgUIKb1iqm9q-1">
          <mxGeometry relative="1" as="geometry" />
        </mxCell>
        <mxCell id="OiaWIOZTLgUIKb1iqm9q-2" value="&lt;font style=&quot;font-size: 20px;&quot;&gt;Open&lt;/font&gt;" style="ellipse;whiteSpace=wrap;html=1;align=center;" vertex="1" parent="1">
          <mxGeometry x="20" y="30" width="160" height="80" as="geometry" />
        </mxCell>
        <mxCell id="OiaWIOZTLgUIKb1iqm9q-3" value="&lt;font style=&quot;font-size: 20px;&quot;&gt;High&lt;/font&gt;" style="ellipse;whiteSpace=wrap;html=1;align=center;" vertex="1" parent="1">
          <mxGeometry x="200" width="160" height="80" as="geometry" />
        </mxCell>
        <mxCell id="OiaWIOZTLgUIKb1iqm9q-9" value="" style="rounded=0;orthogonalLoop=1;jettySize=auto;html=1;endArrow=none;endFill=0;" edge="1" parent="1" source="OiaWIOZTLgUIKb1iqm9q-4" target="OiaWIOZTLgUIKb1iqm9q-1">
          <mxGeometry relative="1" as="geometry" />
        </mxCell>
        <mxCell id="OiaWIOZTLgUIKb1iqm9q-4" value="&lt;font style=&quot;font-size: 20px;&quot;&gt;Close&lt;/font&gt;" style="ellipse;whiteSpace=wrap;html=1;align=center;" vertex="1" parent="1">
          <mxGeometry y="140" width="160" height="80" as="geometry" />
        </mxCell>
        <mxCell id="OiaWIOZTLgUIKb1iqm9q-12" style="rounded=0;orthogonalLoop=1;jettySize=auto;html=1;exitX=0.5;exitY=1;exitDx=0;exitDy=0;entryX=0.5;entryY=0;entryDx=0;entryDy=0;endArrow=none;endFill=0;" edge="1" parent="1" source="OiaWIOZTLgUIKb1iqm9q-5" target="OiaWIOZTLgUIKb1iqm9q-1">
          <mxGeometry relative="1" as="geometry" />
        </mxCell>
        <mxCell id="OiaWIOZTLgUIKb1iqm9q-5" value="&lt;font style=&quot;font-size: 20px;&quot;&gt;Low&lt;/font&gt;" style="ellipse;whiteSpace=wrap;html=1;align=center;" vertex="1" parent="1">
          <mxGeometry x="400" width="160" height="80" as="geometry" />
        </mxCell>
        <mxCell id="OiaWIOZTLgUIKb1iqm9q-7" style="rounded=0;orthogonalLoop=1;jettySize=auto;html=1;exitX=1;exitY=0;exitDx=0;exitDy=0;entryX=0;entryY=1;entryDx=0;entryDy=0;strokeColor=default;endArrow=none;endFill=0;" edge="1" parent="1" source="OiaWIOZTLgUIKb1iqm9q-6" target="OiaWIOZTLgUIKb1iqm9q-1">
          <mxGeometry relative="1" as="geometry" />
        </mxCell>
        <mxCell id="OiaWIOZTLgUIKb1iqm9q-6" value="&lt;font style=&quot;font-size: 20px;&quot;&gt;Volume&lt;/font&gt;" style="ellipse;whiteSpace=wrap;html=1;align=center;" vertex="1" parent="1">
          <mxGeometry x="20" y="250" width="160" height="80" as="geometry" />
        </mxCell>
        <mxCell id="OiaWIOZTLgUIKb1iqm9q-11" style="rounded=0;orthogonalLoop=1;jettySize=auto;html=1;exitX=0.5;exitY=1;exitDx=0;exitDy=0;entryX=0.25;entryY=0;entryDx=0;entryDy=0;endArrow=none;endFill=0;" edge="1" parent="1" source="OiaWIOZTLgUIKb1iqm9q-3" target="OiaWIOZTLgUIKb1iqm9q-1">
          <mxGeometry relative="1" as="geometry" />
        </mxCell>
        <mxCell id="OiaWIOZTLgUIKb1iqm9q-16" style="edgeStyle=orthogonalEdgeStyle;rounded=0;orthogonalLoop=1;jettySize=auto;html=1;exitX=1;exitY=0.5;exitDx=0;exitDy=0;entryX=0;entryY=0.5;entryDx=0;entryDy=0;endArrow=ERmandOne;endFill=0;startSize=11;endSize=20;" edge="1" parent="1" source="OiaWIOZTLgUIKb1iqm9q-13" target="OiaWIOZTLgUIKb1iqm9q-15">
          <mxGeometry relative="1" as="geometry" />
        </mxCell>
        <mxCell id="OiaWIOZTLgUIKb1iqm9q-13" value="&lt;span style=&quot;font-size: 20px;&quot;&gt;Traded&lt;/span&gt;" style="shape=rhombus;perimeter=rhombusPerimeter;whiteSpace=wrap;html=1;align=center;" vertex="1" parent="1">
          <mxGeometry x="560" y="120" width="240" height="120" as="geometry" />
        </mxCell>
        <mxCell id="OiaWIOZTLgUIKb1iqm9q-15" value="&lt;font style=&quot;font-size: 24px;&quot;&gt;Stock&lt;/font&gt;" style="whiteSpace=wrap;html=1;align=center;" vertex="1" parent="1">
          <mxGeometry x="920" y="120" width="240" height="120" as="geometry" />
        </mxCell>
        <mxCell id="OiaWIOZTLgUIKb1iqm9q-23" value="" style="edgeStyle=orthogonalEdgeStyle;rounded=0;orthogonalLoop=1;jettySize=auto;html=1;endArrow=none;endFill=0;entryX=0.75;entryY=1;entryDx=0;entryDy=0;" edge="1" parent="1" source="OiaWIOZTLgUIKb1iqm9q-18" target="OiaWIOZTLgUIKb1iqm9q-15">
          <mxGeometry relative="1" as="geometry" />
        </mxCell>
        <mxCell id="OiaWIOZTLgUIKb1iqm9q-18" value="&lt;font style=&quot;font-size: 20px;&quot;&gt;Symbol&lt;/font&gt;" style="ellipse;whiteSpace=wrap;html=1;align=center;" vertex="1" parent="1">
          <mxGeometry x="1020" y="280" width="160" height="80" as="geometry" />
        </mxCell>
        <mxCell id="OiaWIOZTLgUIKb1iqm9q-21" value="" style="rounded=0;orthogonalLoop=1;jettySize=auto;html=1;endArrow=none;endFill=0;entryX=0.5;entryY=0;entryDx=0;entryDy=0;" edge="1" parent="1" source="OiaWIOZTLgUIKb1iqm9q-20" target="OiaWIOZTLgUIKb1iqm9q-15">
          <mxGeometry relative="1" as="geometry">
            <mxPoint x="850" y="80" as="targetPoint" />
          </mxGeometry>
        </mxCell>
        <mxCell id="OiaWIOZTLgUIKb1iqm9q-20" value="&lt;font style=&quot;font-size: 20px;&quot;&gt;Name&lt;/font&gt;" style="ellipse;whiteSpace=wrap;html=1;align=center;" vertex="1" parent="1">
          <mxGeometry x="960" width="160" height="80" as="geometry" />
        </mxCell>
        <mxCell id="OiaWIOZTLgUIKb1iqm9q-25" style="edgeStyle=orthogonalEdgeStyle;rounded=0;orthogonalLoop=1;jettySize=auto;html=1;exitX=0.5;exitY=1;exitDx=0;exitDy=0;entryX=0.5;entryY=0;entryDx=0;entryDy=0;endArrow=none;endFill=0;" edge="1" parent="1" source="OiaWIOZTLgUIKb1iqm9q-24" target="OiaWIOZTLgUIKb1iqm9q-13">
          <mxGeometry relative="1" as="geometry" />
        </mxCell>
        <mxCell id="OiaWIOZTLgUIKb1iqm9q-24" value="&lt;font style=&quot;font-size: 20px;&quot;&gt;Time&lt;/font&gt;" style="ellipse;whiteSpace=wrap;html=1;align=center;" vertex="1" parent="1">
          <mxGeometry x="600" width="160" height="80" as="geometry" />
        </mxCell>
        <mxCell id="OiaWIOZTLgUIKb1iqm9q-29" style="rounded=0;orthogonalLoop=1;jettySize=auto;html=1;exitX=1;exitY=0.5;exitDx=0;exitDy=0;entryX=0;entryY=0.5;entryDx=0;entryDy=0;endArrow=none;endFill=0;startArrow=ERmany;startFill=0;endSize=8;startSize=20;edgeStyle=orthogonalEdgeStyle;" edge="1" parent="1" source="OiaWIOZTLgUIKb1iqm9q-26" target="OiaWIOZTLgUIKb1iqm9q-27">
          <mxGeometry relative="1" as="geometry" />
        </mxCell>
        <mxCell id="OiaWIOZTLgUIKb1iqm9q-26" value="&lt;font style=&quot;font-size: 20px;&quot;&gt;Usage&lt;/font&gt;" style="rounded=0;whiteSpace=wrap;html=1;" vertex="1" parent="1">
          <mxGeometry x="200" y="440" width="240" height="120" as="geometry" />
        </mxCell>
        <mxCell id="OiaWIOZTLgUIKb1iqm9q-30" style="rounded=0;orthogonalLoop=1;jettySize=auto;html=1;exitX=1;exitY=0.5;exitDx=0;exitDy=0;entryX=0.25;entryY=1;entryDx=0;entryDy=0;endArrow=ERmandOne;endFill=0;edgeStyle=orthogonalEdgeStyle;endSize=20;" edge="1" parent="1" source="OiaWIOZTLgUIKb1iqm9q-27" target="OiaWIOZTLgUIKb1iqm9q-15">
          <mxGeometry relative="1" as="geometry" />
        </mxCell>
        <mxCell id="OiaWIOZTLgUIKb1iqm9q-35" style="rounded=0;orthogonalLoop=1;jettySize=auto;html=1;exitX=0;exitY=1;exitDx=0;exitDy=0;entryX=0.5;entryY=0;entryDx=0;entryDy=0;endArrow=none;endFill=0;" edge="1" parent="1" source="OiaWIOZTLgUIKb1iqm9q-27" target="OiaWIOZTLgUIKb1iqm9q-32">
          <mxGeometry relative="1" as="geometry" />
        </mxCell>
        <mxCell id="OiaWIOZTLgUIKb1iqm9q-36" style="rounded=0;orthogonalLoop=1;jettySize=auto;html=1;exitX=0.5;exitY=1;exitDx=0;exitDy=0;entryX=0.5;entryY=0;entryDx=0;entryDy=0;endArrow=none;endFill=0;" edge="1" parent="1" source="OiaWIOZTLgUIKb1iqm9q-27" target="OiaWIOZTLgUIKb1iqm9q-34">
          <mxGeometry relative="1" as="geometry" />
        </mxCell>
        <mxCell id="OiaWIOZTLgUIKb1iqm9q-38" style="rounded=0;orthogonalLoop=1;jettySize=auto;html=1;exitX=1;exitY=1;exitDx=0;exitDy=0;entryX=0;entryY=0.5;entryDx=0;entryDy=0;endArrow=none;endFill=0;" edge="1" parent="1" source="OiaWIOZTLgUIKb1iqm9q-27" target="OiaWIOZTLgUIKb1iqm9q-33">
          <mxGeometry relative="1" as="geometry" />
        </mxCell>
        <mxCell id="OiaWIOZTLgUIKb1iqm9q-27" value="&lt;span style=&quot;font-size: 20px;&quot;&gt;Selects&lt;/span&gt;" style="shape=rhombus;perimeter=rhombusPerimeter;whiteSpace=wrap;html=1;align=center;" vertex="1" parent="1">
          <mxGeometry x="560" y="280" width="240" height="120" as="geometry" />
        </mxCell>
        <mxCell id="OiaWIOZTLgUIKb1iqm9q-28" style="edgeStyle=orthogonalEdgeStyle;rounded=0;orthogonalLoop=1;jettySize=auto;html=1;exitX=0.5;exitY=1;exitDx=0;exitDy=0;" edge="1" parent="1" source="OiaWIOZTLgUIKb1iqm9q-27" target="OiaWIOZTLgUIKb1iqm9q-27">
          <mxGeometry relative="1" as="geometry" />
        </mxCell>
        <mxCell id="OiaWIOZTLgUIKb1iqm9q-32" value="&lt;font style=&quot;font-size: 20px;&quot;&gt;Start Date&lt;/font&gt;" style="ellipse;whiteSpace=wrap;html=1;align=center;" vertex="1" parent="1">
          <mxGeometry x="520" y="440" width="160" height="80" as="geometry" />
        </mxCell>
        <mxCell id="OiaWIOZTLgUIKb1iqm9q-33" value="&lt;span style=&quot;font-size: 20px;&quot;&gt;Selected Attributes&lt;/span&gt;" style="ellipse;whiteSpace=wrap;html=1;align=center;" vertex="1" parent="1">
          <mxGeometry x="850" y="360" width="160" height="80" as="geometry" />
        </mxCell>
        <mxCell id="OiaWIOZTLgUIKb1iqm9q-34" value="&lt;font style=&quot;font-size: 20px;&quot;&gt;End Date&lt;/font&gt;" style="ellipse;whiteSpace=wrap;html=1;align=center;" vertex="1" parent="1">
          <mxGeometry x="720" y="440" width="160" height="80" as="geometry" />
        </mxCell>
        <mxCell id="OiaWIOZTLgUIKb1iqm9q-48" style="edgeStyle=orthogonalEdgeStyle;rounded=0;orthogonalLoop=1;jettySize=auto;html=1;exitX=0.5;exitY=1;exitDx=0;exitDy=0;entryX=0.5;entryY=0;entryDx=0;entryDy=0;endArrow=none;endFill=0;" edge="1" parent="1" source="OiaWIOZTLgUIKb1iqm9q-40" target="OiaWIOZTLgUIKb1iqm9q-26">
          <mxGeometry relative="1" as="geometry" />
        </mxCell>
        <mxCell id="OiaWIOZTLgUIKb1iqm9q-40" value="&lt;font style=&quot;font-size: 20px;&quot;&gt;Timestamp&lt;/font&gt;" style="ellipse;whiteSpace=wrap;html=1;align=center;" vertex="1" parent="1">
          <mxGeometry x="240" y="320" width="160" height="80" as="geometry" />
        </mxCell>
        <mxCell id="OiaWIOZTLgUIKb1iqm9q-46" style="edgeStyle=orthogonalEdgeStyle;rounded=0;orthogonalLoop=1;jettySize=auto;html=1;exitX=1;exitY=0.5;exitDx=0;exitDy=0;entryX=0;entryY=0.5;entryDx=0;entryDy=0;endArrow=none;endFill=0;" edge="1" parent="1" source="OiaWIOZTLgUIKb1iqm9q-41" target="OiaWIOZTLgUIKb1iqm9q-26">
          <mxGeometry relative="1" as="geometry" />
        </mxCell>
        <mxCell id="OiaWIOZTLgUIKb1iqm9q-41" value="&lt;font style=&quot;font-size: 20px;&quot;&gt;Type&lt;/font&gt;" style="ellipse;whiteSpace=wrap;html=1;align=center;" vertex="1" parent="1">
          <mxGeometry y="460" width="160" height="80" as="geometry" />
        </mxCell>
        <mxCell id="OiaWIOZTLgUIKb1iqm9q-47" style="rounded=0;orthogonalLoop=1;jettySize=auto;html=1;exitX=1;exitY=1;exitDx=0;exitDy=0;entryX=0;entryY=0;entryDx=0;entryDy=0;endArrow=none;endFill=0;" edge="1" parent="1" source="OiaWIOZTLgUIKb1iqm9q-42" target="OiaWIOZTLgUIKb1iqm9q-26">
          <mxGeometry relative="1" as="geometry" />
        </mxCell>
        <mxCell id="OiaWIOZTLgUIKb1iqm9q-42" value="&lt;font style=&quot;font-size: 20px;&quot;&gt;Requestor&lt;/font&gt;" style="ellipse;whiteSpace=wrap;html=1;align=center;" vertex="1" parent="1">
          <mxGeometry x="20" y="350" width="160" height="80" as="geometry" />
        </mxCell>
        <mxCell id="OiaWIOZTLgUIKb1iqm9q-45" style="rounded=0;orthogonalLoop=1;jettySize=auto;html=1;exitX=1;exitY=0;exitDx=0;exitDy=0;entryX=0;entryY=1;entryDx=0;entryDy=0;endArrow=none;endFill=0;" edge="1" parent="1" source="OiaWIOZTLgUIKb1iqm9q-43" target="OiaWIOZTLgUIKb1iqm9q-26">
          <mxGeometry relative="1" as="geometry" />
        </mxCell>
        <mxCell id="OiaWIOZTLgUIKb1iqm9q-43" value="&lt;font style=&quot;font-size: 20px;&quot;&gt;Latency&lt;/font&gt;" style="ellipse;whiteSpace=wrap;html=1;align=center;" vertex="1" parent="1">
          <mxGeometry x="20" y="570" width="160" height="80" as="geometry" />
        </mxCell>
      </root>
    </mxGraphModel>
  </diagram>
</mxfile>
